<svg width="90" height="90" viewBox="0 0 90 90" fill="none" xmlns="http://www.w3.org/2000/svg">
<g id="mdi:calendar-clock">
<path id="Vector" d="M56.25 48.75H61.875V59.325L71.025 64.6125L68.2125 69.4875L56.25 62.5875V48.75ZM71.25 30H18.75V71.25H36.2625C34.65 67.8375 33.75 64.0125 33.75 60C33.75 53.0381 36.5156 46.3613 41.4384 41.4384C46.3613 36.5156 53.0381 33.75 60 33.75C64.0125 33.75 67.8375 34.65 71.25 36.2625V30ZM18.75 78.75C16.7609 78.75 14.8532 77.9598 13.4467 76.5533C12.0402 75.1468 11.25 73.2391 11.25 71.25V18.75C11.25 14.5875 14.5875 11.25 18.75 11.25H22.5V3.75H30V11.25H60V3.75H67.5V11.25H71.25C73.2391 11.25 75.1468 12.0402 76.5533 13.4467C77.9598 14.8532 78.75 16.7609 78.75 18.75V41.625C83.4 46.35 86.25 52.8375 86.25 60C86.25 66.9619 83.4844 73.6387 78.5616 78.5616C73.6387 83.4844 66.9619 86.25 60 86.25C52.8375 86.25 46.35 83.4 41.625 78.75H18.75ZM60 41.8125C55.1764 41.8125 50.5503 43.7287 47.1395 47.1395C43.7287 50.5503 41.8125 55.1764 41.8125 60C41.8125 70.05 49.95 78.1875 60 78.1875C62.3884 78.1875 64.7534 77.7171 66.9601 76.8031C69.1667 75.8891 71.1716 74.5494 72.8605 72.8605C74.5494 71.1716 75.8891 69.1667 76.8031 66.9601C77.7171 64.7534 78.1875 62.3884 78.1875 60C78.1875 49.95 70.05 41.8125 60 41.8125Z" fill="#6B6B6B"/>
</g>
</svg>
