<svg width="90" height="90" viewBox="0 0 90 90" fill="none" xmlns="http://www.w3.org/2000/svg">
<g id="mingcute:arrows-left-fill" clip-path="url(#clip0_6_10336)">
<g id="Group">
<path id="Vector" fill-rule="evenodd" clip-rule="evenodd" d="M44.7749 67.725C43.7216 66.6703 43.1299 65.2406 43.1299 63.75C43.1299 62.2594 43.7216 60.8297 44.7749 59.775L59.5424 45L44.7674 30.225C43.7433 29.1636 43.177 27.7425 43.1905 26.2676C43.204 24.7927 43.7962 23.3822 44.8397 22.3398C45.8831 21.2973 47.2942 20.7064 48.769 20.6943C50.2439 20.6822 51.6645 21.2498 52.7249 22.275L71.4749 41.025C72.5283 42.0797 73.12 43.5094 73.12 45C73.12 46.4906 72.5283 47.9203 71.4749 48.975L52.7249 67.725C52.2026 68.2477 51.5823 68.6623 50.8996 68.9453C50.2169 69.2282 49.4852 69.3738 48.7462 69.3738C48.0072 69.3738 47.2755 69.2282 46.5928 68.9453C45.9101 68.6623 45.2898 68.2477 44.7674 67.725H44.7749ZM22.2749 67.725C21.2216 66.6703 20.6299 65.2406 20.6299 63.75C20.6299 62.2594 21.2216 60.8297 22.2749 59.775L37.0424 45L22.2674 30.225C21.2433 29.1636 20.677 27.7425 20.6905 26.2676C20.704 24.7927 21.2962 23.3822 22.3397 22.3398C23.3831 21.2973 24.7942 20.7064 26.2691 20.6943C27.7439 20.6822 29.1645 21.2498 30.2249 22.275L48.9749 41.025C50.0283 42.0797 50.62 43.5094 50.62 45C50.62 46.4906 50.0283 47.9203 48.9749 48.975L30.2249 67.725C29.7026 68.2477 29.0823 68.6623 28.3996 68.9453C27.7169 69.2282 26.9852 69.3738 26.2462 69.3738C25.5072 69.3738 24.7755 69.2282 24.0928 68.9453C23.4101 68.6623 22.7898 68.2477 22.2674 67.725H22.2749Z" fill="#D25B5B"/>
</g>
</g>
<defs>
<clipPath id="clip0_6_10336">
<rect width="90" height="90" fill="white" transform="matrix(-1 0 0 -1 90 90)"/>
</clipPath>
</defs>
</svg>
