<svg width="100" height="100" viewBox="0 0 100 100" fill="none" xmlns="http://www.w3.org/2000/svg">
<path d="M0 85.4167H100M58.3333 39.5833H14.5833C12.9656 39.5832 11.3828 40.0539 10.0281 40.9381C8.67339 41.8223 7.6053 43.0816 6.95417 44.5625C6.0625 46.5833 7.12917 48.7958 8.69167 50.3542L27.5667 69.2333C29.9249 71.5915 33.1233 72.9163 36.4583 72.9163C39.7933 72.9163 42.9917 71.5915 45.35 69.2333L62.5 52.0833H70.8333C70.8333 52.0833 83.4833 52.8083 97.9167 44.475M41.6667 58.3333L22.9167 39.5833M11.2292 31.25C11.2292 31.25 3.6875 28.9292 2.33333 23.85C1.82942 21.9688 2.09095 19.9646 3.06072 18.2757C4.0305 16.5868 5.62961 15.3506 7.50833 14.8375C8.43749 14.5889 9.40665 14.5265 10.36 14.6541C11.3134 14.7816 12.2321 15.0965 13.0632 15.5806C13.8943 16.0647 14.6215 16.7085 15.2027 17.4749C15.784 18.2412 16.2079 19.115 16.45 20.0458C17.8 25.125 12.4417 30.9208 12.4417 30.9208L11.2292 31.25Z" stroke="#D25B5B"/>
</svg>
