<svg width="100" height="100" viewBox="0 0 100 100" fill="none" xmlns="http://www.w3.org/2000/svg">
<path d="M25 73C24.3067 72.9492 23.6119 72.9214 22.9167 72.9167C19.6015 72.9167 16.4221 74.2336 14.0779 76.5778C11.7336 78.922 10.4167 82.1015 10.4167 85.4167C10.4167 88.7319 11.7336 91.9113 14.0779 94.2555C16.4221 96.5997 19.6015 97.9167 22.9167 97.9167C31.25 97.9167 64.2209 84.7833 72.9167 82.2917V80.2083C68.6792 79.5 51.025 76.4 37.5 74.475M72.9167 64.5833V45.8333M72.9167 64.5833C75.9404 64.5848 78.9067 65.4087 81.4979 66.967C84.0891 68.5252 86.2077 70.759 87.6265 73.4291C89.0454 76.0993 89.7111 79.105 89.5525 82.1246C89.3938 85.1441 88.4167 88.0635 86.7258 90.5702C85.0349 93.0769 82.694 95.0764 79.9537 96.3545C77.2135 97.6326 74.1771 98.1412 71.1699 97.8257C68.1628 97.5102 65.2981 96.3827 62.8827 94.5637C60.4673 92.7448 58.5922 90.303 57.4584 87.5M72.9167 64.5833C69.2214 64.5838 65.6309 65.8118 62.7093 68.0743C59.7876 70.3368 57.7002 73.5057 56.775 77.0833M79.1667 33.3333L91.6667 20.8333M79.1667 39.5833H66.7959C64.2978 39.5829 61.8572 38.8341 59.7889 37.4334C57.7205 36.0327 56.1193 34.0444 55.1917 31.725L50 18.75H46.1917C43.2684 18.7501 40.4377 19.7748 38.1917 21.6458L22.9167 34.375V35.4167L35.4167 52.0833V53.125C35.4167 53.125 31.25 62.5 31.25 79.1667M41.6667 39.5833L54.1667 47.9167V48.9583C54.1667 48.9583 45.8334 54.1667 43.75 61.4583M61.6875 18.75C61.6875 18.75 69.2292 16.4292 70.5834 11.35C71.0873 9.46879 70.8257 7.46458 69.856 5.77567C68.8862 4.08676 67.2871 2.85059 65.4084 2.3375C64.4795 2.0895 63.5107 2.02764 62.5578 2.15548C61.605 2.28332 60.6868 2.59834 59.8561 3.08241C59.0255 3.56648 58.2987 4.21004 57.7177 4.97605C57.1368 5.74207 56.713 6.61541 56.4709 7.54583C55.1167 12.625 60.475 18.4208 60.475 18.4208L61.6875 18.75Z" stroke="#D25B5B"/>
</svg>
