<svg width="90" height="90" viewBox="0 0 90 90" fill="none" xmlns="http://www.w3.org/2000/svg">
<path id="Vector" d="M7.5 90C7.5 90 0 90 0 82.5C0 75 7.5 52.5 45 52.5C82.5 52.5 90 75 90 82.5C90 90 82.5 90 82.5 90H7.5ZM45 45C50.9674 45 56.6903 42.6295 60.9099 38.4099C65.1295 34.1903 67.5 28.4674 67.5 22.5C67.5 16.5326 65.1295 10.8097 60.9099 6.5901C56.6903 2.37053 50.9674 0 45 0C39.0326 0 33.3097 2.37053 29.0901 6.5901C24.8705 10.8097 22.5 16.5326 22.5 22.5C22.5 28.4674 24.8705 34.1903 29.0901 38.4099C33.3097 42.6295 39.0326 45 45 45Z" fill="#D25B5B"/>
</svg>
