<?xml version="1.0" standalone="no"?>
<!DOCTYPE svg PUBLIC "-//W3C//DTD SVG 20010904//EN"
 "http://www.w3.org/TR/2001/REC-SVG-20010904/DTD/svg10.dtd">
<svg version="1.0" xmlns="http://www.w3.org/2000/svg"
 width="512.000000pt" height="512.000000pt" viewBox="0 0 512.000000 512.000000"
 preserveAspectRatio="xMidYMid meet">

<g transform="translate(0.000000,512.000000) scale(0.100000,-0.100000)"
fill="#000000" stroke="none">
<path d="M3216 5100 c-115 -45 -176 -148 -176 -294 0 -79 -2 -87 -34 -135 -58
-86 -68 -133 -64 -289 5 -163 21 -215 98 -310 l50 -62 0 -95 0 -94 -37 -10
c-21 -6 -90 -22 -153 -36 -115 -26 -170 -47 -695 -254 -300 -119 -333 -138
-320 -190 9 -38 39 -64 72 -63 15 0 182 62 370 136 188 75 344 136 345 136 2
0 3 -55 2 -122 l0 -122 -695 -228 c-381 -125 -706 -228 -720 -228 -51 0 -84
79 -48 115 8 8 113 53 234 100 223 87 265 112 265 156 0 24 -51 79 -73 79 -8
0 -123 -43 -255 -96 -219 -87 -244 -99 -281 -139 -65 -71 -77 -165 -31 -254
40 -79 142 -128 231 -111 24 5 354 111 733 235 378 124 689 225 691 223 1 -2
10 -34 21 -72 12 -46 14 -71 7 -73 -5 -2 -34 -18 -64 -36 -97 -58 -136 -182
-90 -283 10 -23 23 -44 29 -48 6 -3 -7 -47 -33 -108 -24 -57 -51 -138 -59
-180 -43 -207 1 -439 116 -614 26 -41 48 -79 48 -84 0 -5 -36 -57 -80 -115
-85 -111 -97 -147 -66 -191 14 -19 11 -28 -29 -106 -40 -76 -47 -85 -68 -81
-49 10 -71 -28 -168 -289 l-92 -247 -118 -135 c-65 -75 -123 -144 -128 -155
-22 -40 -30 -105 -20 -153 24 -112 115 -178 248 -178 162 0 198 29 302 245 77
158 82 165 267 392 104 126 204 252 222 278 33 48 34 48 43 24 40 -100 87
-192 190 -377 l120 -213 -29 -52 c-24 -43 -29 -64 -29 -122 0 -82 22 -123 85
-155 35 -18 60 -20 218 -20 167 0 182 1 222 23 50 26 90 90 90 142 0 55 -28
129 -66 174 -36 42 -37 44 -95 347 -69 363 -104 481 -204 684 -42 84 -80 176
-86 203 l-9 50 78 81 c173 182 252 364 255 591 1 113 -10 184 -44 265 l-19 45
80 152 c47 89 80 163 80 180 0 59 -85 98 -122 56 -9 -10 -46 -76 -83 -148 -73
-140 -96 -172 -135 -187 -34 -13 -693 38 -737 57 -37 17 -51 54 -34 91 21 47
38 48 361 29 165 -9 312 -14 325 -11 14 4 31 16 39 29 8 12 61 155 117 317 55
162 107 307 115 321 15 30 69 59 111 59 35 0 88 -31 104 -62 21 -40 14 -99
-19 -165 -37 -72 -39 -89 -13 -122 23 -30 80 -34 109 -8 29 26 82 149 89 204
8 72 -17 149 -68 207 -51 58 -72 68 -291 146 l-178 63 0 98 0 99 50 62 c77 95
93 147 98 310 4 156 -6 203 -64 289 -32 48 -34 56 -34 135 0 107 -24 174 -83
232 -79 77 -191 101 -291 62z m324 -753 c0 -128 -117 -267 -225 -267 -102 0
-209 118 -222 244 l-6 56 227 0 226 0 0 -33z m-150 -489 c0 -61 -2 -69 -25
-84 -17 -11 -37 -15 -61 -11 -56 9 -64 21 -64 96 l0 67 75 0 75 0 0 -68z
m-196 -218 c82 -42 160 -42 242 0 l59 29 58 -21 58 -21 -19 -21 c-32 -35 -42
-60 -142 -346 l-96 -275 -120 1 c-65 1 -162 4 -215 8 l-97 8 -48 176 c-37 136
-48 194 -48 252 -1 70 12 137 33 168 8 13 211 69 256 71 11 0 47 -13 79 -29z
m-90 -1116 c177 -14 354 -24 394 -21 l72 4 15 -50 c8 -28 12 -54 8 -58 -36
-34 -494 -62 -664 -41 -153 19 -219 33 -219 47 0 19 58 145 66 145 4 0 152
-12 328 -26z m-577 -1861 l32 -19 -42 -49 -43 -49 -57 33 c-31 18 -57 35 -57
38 0 3 9 32 21 64 l21 57 47 -27 c25 -15 60 -37 78 -48z m1057 -85 c17 -80 26
-131 24 -134 -2 -1 -38 -4 -81 -5 l-78 -4 -30 54 c-16 30 -29 57 -29 60 0 7
141 47 172 50 11 0 19 -8 22 -21z m-1249 -129 c30 -17 55 -34 55 -38 0 -24
-113 -242 -129 -250 -11 -6 -44 -11 -74 -11 -69 0 -107 26 -107 74 0 27 17 52
97 144 53 62 98 112 100 112 2 0 28 -14 58 -31z m1325 -177 c21 -10 42 -32 53
-55 32 -65 27 -67 -143 -67 -131 0 -151 2 -157 17 -10 26 28 86 67 105 46 23
134 23 180 0z"/>
</g>
</svg>
